<svg xmlns="http://www.w3.org/2000/svg" xmlns:xlink="http://www.w3.org/1999/xlink" width="240" zoomAndPan="magnify" viewBox="0 0 180 60" height="80" preserveAspectRatio="xMidYMid meet" version="1.0"><defs><g/><clipPath id="319c0260a8"><path d="M 0 0 L 51.75 0 L 51.75 60 L 0 60 Z M 0 0 " clip-rule="nonzero"/></clipPath><clipPath id="aaf3be75f7"><path d="M 134 34 L 137 34 L 137 36 L 134 36 Z M 134 34 " clip-rule="nonzero"/></clipPath><clipPath id="86d7c46e56"><path d="M 131.179688 41.378906 L 130.917969 26.382812 L 145.914062 26.117188 L 146.175781 41.117188 Z M 131.179688 41.378906 " clip-rule="nonzero"/></clipPath><clipPath id="e1eb886195"><path d="M 131.179688 41.378906 L 130.917969 26.382812 L 145.914062 26.117188 L 146.175781 41.117188 Z M 131.179688 41.378906 " clip-rule="nonzero"/></clipPath><clipPath id="ab3f24be58"><path d="M 134 31 L 137 31 L 137 33 L 134 33 Z M 134 31 " clip-rule="nonzero"/></clipPath><clipPath id="d046f858e9"><path d="M 131.179688 41.378906 L 130.917969 26.382812 L 145.914062 26.117188 L 146.175781 41.117188 Z M 131.179688 41.378906 " clip-rule="nonzero"/></clipPath><clipPath id="217829cb29"><path d="M 131.179688 41.378906 L 130.917969 26.382812 L 145.914062 26.117188 L 146.175781 41.117188 Z M 131.179688 41.378906 " clip-rule="nonzero"/></clipPath><clipPath id="1609639045"><path d="M 131 26 L 147 26 L 147 42 L 131 42 Z M 131 26 " clip-rule="nonzero"/></clipPath><clipPath id="47c81ed0d5"><path d="M 131.179688 41.378906 L 130.917969 26.382812 L 145.914062 26.117188 L 146.175781 41.117188 Z M 131.179688 41.378906 " clip-rule="nonzero"/></clipPath><clipPath id="0fc91a59e8"><path d="M 131.179688 41.378906 L 130.917969 26.382812 L 145.914062 26.117188 L 146.175781 41.117188 Z M 131.179688 41.378906 " clip-rule="nonzero"/></clipPath></defs><g clip-path="url(#319c0260a8)"><path fill="#15366f" d="M 51.746094 45 L 51.746094 15 L 25.875 0 L 0.00390625 15 L 0.00390625 45 L 25.875 60.003906 L 51.746094 45 " fill-opacity="1" fill-rule="nonzero"/></g><path fill="#87d8f7" d="M 48.183594 17.066406 L 48.183594 42.933594 L 25.875 55.871094 L 25.875 30.003906 L 48.183594 17.066406 " fill-opacity="1" fill-rule="nonzero"/><path fill="#87d8f7" d="M 48.183594 17.066406 L 25.875 30 L 3.570312 17.066406 L 25.875 4.132812 L 48.183594 17.066406 " fill-opacity="1" fill-rule="nonzero"/><path fill="#ffffff" d="M 25.875 56.644531 C 25.742188 56.644531 25.609375 56.613281 25.488281 56.542969 L 3.183594 43.609375 C 2.941406 43.46875 2.796875 43.214844 2.796875 42.933594 L 2.796875 17.066406 C 2.796875 16.636719 3.140625 16.289062 3.570312 16.289062 C 3.996094 16.289062 4.34375 16.636719 4.34375 17.066406 L 4.34375 42.488281 L 26.261719 55.195312 C 26.632812 55.410156 26.761719 55.886719 26.546875 56.257812 C 26.402344 56.507812 26.140625 56.644531 25.875 56.644531 " fill-opacity="1" fill-rule="nonzero"/><path fill="#ffffff" d="M 26.648438 30.449219 L 26.648438 54.523438 L 47.410156 42.488281 L 47.410156 18.414062 Z M 25.875 56.644531 C 25.742188 56.644531 25.609375 56.613281 25.488281 56.542969 C 25.25 56.402344 25.101562 56.148438 25.101562 55.871094 L 25.101562 30.003906 C 25.101562 29.722656 25.25 29.46875 25.488281 29.328125 L 47.796875 16.394531 C 48.035156 16.253906 48.332031 16.253906 48.570312 16.394531 C 48.808594 16.53125 48.957031 16.789062 48.957031 17.066406 L 48.957031 42.933594 C 48.957031 43.214844 48.808594 43.46875 48.570312 43.609375 L 26.261719 56.542969 C 26.144531 56.613281 26.007812 56.644531 25.875 56.644531 " fill-opacity="1" fill-rule="nonzero"/><path fill="#ffffff" d="M 5.117188 17.066406 L 25.875 29.101562 L 46.636719 17.066406 L 25.875 5.03125 Z M 25.875 30.777344 C 25.742188 30.777344 25.609375 30.742188 25.488281 30.671875 L 3.183594 17.742188 C 2.941406 17.601562 2.796875 17.34375 2.796875 17.066406 C 2.796875 16.789062 2.941406 16.53125 3.183594 16.394531 L 25.488281 3.460938 C 25.726562 3.320312 26.023438 3.320312 26.261719 3.460938 L 48.570312 16.394531 C 48.808594 16.53125 48.957031 16.789062 48.957031 17.066406 C 48.957031 17.34375 48.808594 17.601562 48.570312 17.742188 L 26.261719 30.671875 C 26.144531 30.742188 26.007812 30.777344 25.875 30.777344 " fill-opacity="1" fill-rule="nonzero"/><path fill="#15366f" d="M 35.585938 25.246094 L 35.585938 30.65625 L 40.113281 28.03125 L 40.113281 22.621094 L 35.585938 25.246094 " fill-opacity="1" fill-rule="nonzero"/><path fill="#15366f" d="M 34.914062 23.878906 L 39.394531 21.28125 L 18.785156 9.332031 L 14.304688 11.929688 L 34.914062 23.878906 " fill-opacity="1" fill-rule="nonzero"/><g clip-path="url(#aaf3be75f7)"><g clip-path="url(#86d7c46e56)"><g clip-path="url(#e1eb886195)"><path fill="#47a3e8" d="M 134.070312 35.140625 L 134.074219 35.34375 C 134.078125 35.582031 134.261719 35.769531 134.488281 35.765625 L 136.195312 35.738281 L 136.175781 34.671875 L 134.46875 34.703125 C 134.246094 34.707031 134.066406 34.902344 134.070312 35.140625 Z M 134.070312 35.140625 " fill-opacity="1" fill-rule="nonzero"/></g></g></g><g clip-path="url(#ab3f24be58)"><g clip-path="url(#d046f858e9)"><g clip-path="url(#217829cb29)"><path fill="#47a3e8" d="M 134.023438 32.285156 L 134.027344 32.488281 C 134.03125 32.726562 134.214844 32.914062 134.4375 32.910156 L 136.144531 32.882812 L 136.128906 31.816406 L 134.417969 31.847656 C 134.195312 31.851562 134.019531 32.046875 134.023438 32.285156 Z M 134.023438 32.285156 " fill-opacity="1" fill-rule="nonzero"/></g></g></g><g clip-path="url(#1609639045)"><g clip-path="url(#47c81ed0d5)"><g clip-path="url(#0fc91a59e8)"><path fill="#47a3e8" d="M 131.058594 33.867188 C 131.132812 38 134.625 41.304688 138.847656 41.234375 C 140.886719 41.195312 142.789062 40.386719 144.210938 38.953125 C 145.050781 38.105469 145.683594 37.0625 146.035156 35.9375 C 146.058594 35.859375 146.070312 35.785156 146.070312 35.710938 C 146.0625 35.40625 145.863281 35.128906 145.546875 35.035156 C 145.160156 34.917969 144.746094 35.128906 144.628906 35.511719 C 144.339844 36.417969 143.832031 37.261719 143.152344 37.949219 C 142.007812 39.105469 140.46875 39.757812 138.824219 39.789062 C 135.414062 39.847656 132.59375 37.179688 132.535156 33.839844 C 132.476562 30.5 135.203125 27.734375 138.609375 27.675781 C 140.261719 27.644531 141.824219 28.25 143.011719 29.371094 C 143.421875 29.804688 144.25 30.878906 144.261719 31.53125 C 144.265625 31.867188 144.164062 32.121094 143.933594 32.328125 C 143.355469 32.855469 142.167969 32.988281 141.339844 33 C 141.253906 31.746094 140.179688 30.765625 138.882812 30.789062 L 136.589844 30.832031 L 136.691406 36.707031 L 138.984375 36.664062 C 140.257812 36.644531 141.28125 35.667969 141.359375 34.445312 C 142.347656 34.4375 143.964844 34.273438 144.9375 33.386719 C 145.472656 32.902344 145.75 32.25 145.734375 31.503906 C 145.710938 30.109375 144.242188 28.542969 144.074219 28.367188 L 144.050781 28.347656 C 142.578125 26.945312 140.636719 26.195312 138.585938 26.230469 C 134.363281 26.304688 130.988281 29.730469 131.058594 33.867188 Z M 131.058594 33.867188 " fill-opacity="1" fill-rule="nonzero"/></g></g></g><g fill="#47a3e8" fill-opacity="1"><g transform="translate(110.792831, 40.1393)"><g><path d="M 17.203125 -8.691406 L 11.078125 -8.691406 C 10.902344 -8.691406 10.804688 -8.550781 10.804688 -8.367188 L 10.804688 -7.222656 C 10.804688 -7.023438 10.902344 -6.925781 11.078125 -6.925781 L 15.527344 -6.925781 L 15.527344 -3.195312 C 14.484375 -2.363281 12.65625 -1.726562 11.152344 -1.726562 C 6.75 -1.726562 3.40625 -5.121094 3.40625 -9.421875 C 3.40625 -13.710938 6.824219 -17.066406 11.152344 -17.066406 C 12.582031 -17.066406 14.394531 -16.671875 15.886719 -15.390625 C 16.0625 -15.226562 16.296875 -15.242188 16.421875 -15.425781 L 17.167969 -16.546875 C 17.292969 -16.71875 17.253906 -16.945312 17.082031 -17.09375 C 15.351562 -18.574219 13.066406 -19.132812 11.152344 -19.132812 C 5.65625 -19.132812 1.332031 -14.894531 1.332031 -9.421875 C 1.332031 -3.964844 5.65625 0.261719 11.152344 0.261719 C 13.363281 0.261719 15.824219 -0.597656 17.304688 -1.703125 C 17.429688 -1.800781 17.515625 -2 17.515625 -2.164062 L 17.515625 -8.367188 C 17.515625 -8.550781 17.378906 -8.691406 17.203125 -8.691406 Z M 17.203125 -8.691406 "/></g></g></g><g fill="#47a3e8" fill-opacity="1"><g transform="translate(128.853012, 40.1393)"><g/></g></g><g fill="#47a3e8" fill-opacity="1"><g transform="translate(134.874233, 40.1393)"><g/></g></g><g fill="#47a3e8" fill-opacity="1"><g transform="translate(140.895453, 40.1393)"><g/></g></g><g fill="#47a3e8" fill-opacity="1"><g transform="translate(146.913193, 40.1393)"><g><path d="M 13.761719 -12.554688 L 13.015625 -12.554688 C 12.855469 -12.554688 12.742188 -12.46875 12.691406 -12.320312 L 12.332031 -9.90625 C 11.289062 -11.722656 9.433594 -12.828125 7.234375 -12.828125 C 3.742188 -12.828125 1.042969 -10.019531 1.042969 -6.265625 C 1.042969 -2.585938 3.753906 0.25 7.246094 0.25 C 9.433594 0.25 11.289062 -0.871094 12.332031 -2.648438 L 12.691406 -0.210938 C 12.742188 -0.0742188 12.855469 0.0234375 13.015625 0.0234375 L 13.761719 0.0234375 C 13.949219 0.0234375 14.070312 -0.0976562 14.070312 -0.285156 L 14.070312 -12.246094 C 14.070312 -12.445312 13.949219 -12.554688 13.761719 -12.554688 Z M 7.570312 -1.605469 C 5.023438 -1.605469 2.945312 -3.667969 2.945312 -6.277344 C 2.945312 -8.925781 5.011719 -10.964844 7.558594 -10.964844 C 10.167969 -10.964844 12.269531 -8.925781 12.269531 -6.277344 C 12.269531 -3.667969 10.179688 -1.605469 7.570312 -1.605469 Z M 7.570312 -1.605469 "/></g></g></g><g fill="#47a3e8" fill-opacity="1"><g transform="translate(161.512004, 40.1393)"><g><path d="M 10.378906 -11.796875 C 9.546875 -12.417969 8.476562 -12.804688 7.582031 -12.804688 C 5.890625 -12.804688 4.351562 -11.773438 3.605469 -10.28125 L 3.292969 -12.320312 C 3.257812 -12.46875 3.132812 -12.554688 2.984375 -12.554688 L 2.226562 -12.554688 C 2.039062 -12.554688 1.925781 -12.445312 1.925781 -12.246094 L 1.925781 -0.273438 C 1.925781 -0.0742188 2.027344 0.0234375 2.226562 0.0234375 L 3.503906 0.0234375 C 3.703125 0.0234375 3.816406 -0.0742188 3.816406 -0.273438 L 3.816406 -7.445312 C 3.816406 -9.460938 5.34375 -11.136719 7.359375 -11.136719 C 8.019531 -11.136719 8.789062 -10.851562 9.410156 -10.378906 C 9.597656 -10.242188 9.769531 -10.253906 9.894531 -10.441406 L 10.46875 -11.351562 C 10.566406 -11.511719 10.515625 -11.683594 10.378906 -11.796875 Z M 10.378906 -11.796875 "/></g></g></g><g fill="#15366f" fill-opacity="1"><g transform="translate(54.037029, 42.248348)"><g><path d="M 8.613281 -21.578125 C 8.613281 -22.015625 8.363281 -22.25 7.9375 -22.25 L 2.578125 -22.25 C 2.152344 -22.25 1.902344 -22.015625 1.902344 -21.578125 L 1.902344 -0.671875 C 1.902344 -0.25 2.152344 0 2.578125 0 L 7.9375 0 C 8.363281 0 8.613281 -0.25 8.613281 -0.671875 Z M 8.613281 -21.578125 "/></g></g></g><g fill="#15366f" fill-opacity="1"><g transform="translate(64.014606, 42.248348)"><g><path d="M 0.71875 -17.359375 C 0.71875 -16.742188 1.082031 -16.390625 1.65625 -16.390625 L 6.09375 -16.390625 L 6.09375 -0.9375 C 6.09375 -0.351562 6.445312 0 7.046875 0 L 11.863281 0 C 12.464844 0 12.800781 -0.351562 12.800781 -0.9375 L 12.800781 -16.390625 L 17.300781 -16.390625 C 17.886719 -16.390625 18.238281 -16.773438 18.238281 -17.359375 L 18.238281 -21.296875 C 18.238281 -21.882812 17.886719 -22.25 17.300781 -22.25 L 1.65625 -22.25 C 1.070312 -22.25 0.71875 -21.898438 0.71875 -21.296875 Z M 0.71875 -17.359375 "/></g></g></g><g fill="#15366f" fill-opacity="1"><g transform="translate(82.429686, 42.248348)"><g><path d="M 22.425781 -1.070312 L 15.953125 -11.5 L 21.957031 -21.167969 C 22.367188 -21.824219 22.191406 -22.25 21.472656 -22.25 L 15.261719 -22.25 C 14.882812 -22.25 14.324219 -21.929688 14.046875 -21.414062 L 11.453125 -16.714844 L 8.847656 -21.414062 C 8.570312 -21.914062 8.027344 -22.25 7.644531 -22.25 L 1.433594 -22.25 C 0.730469 -22.25 0.527344 -21.8125 0.953125 -21.152344 L 7.265625 -11.484375 L 0.484375 -1.070312 C 0.0585938 -0.4375 0.277344 0 1.039062 0 L 7.164062 0 C 7.542969 0 8.085938 -0.308594 8.378906 -0.804688 L 11.441406 -6.238281 L 14.53125 -0.804688 C 14.824219 -0.308594 15.335938 0 15.761719 0 L 21.855469 0 C 22.632812 0 22.851562 -0.4375 22.425781 -1.070312 Z M 22.425781 -1.070312 "/></g></g></g></svg>